<?xml version="1.0" encoding="UTF-8" standalone="no"?>
<!DOCTYPE svg PUBLIC "-//W3C//DTD SVG 1.1//EN"
 "http://www.w3.org/Graphics/SVG/1.1/DTD/svg11.dtd">
<!-- Generated by graphviz version 2.42.4 (0)
 -->
<!-- Title: AWSNetwork Pages: 1 -->
<svg width="1555pt" height="596pt"
 viewBox="0.00 0.00 1555.00 596.12" xmlns="http://www.w3.org/2000/svg" xmlns:xlink="http://www.w3.org/1999/xlink">
<g id="graph0" class="graph" transform="scale(1 1) rotate(0) translate(4 592.12)">
<title>AWSNetwork</title>
<polygon fill="white" stroke="transparent" points="-4,4 -4,-592.12 1551,-592.12 1551,4 -4,4"/>
<g id="clust1" class="cluster">
<title>cluster_vpc</title>
<polygon fill="none" stroke="black" points="8,-8 8,-344.75 1539,-344.75 1539,-8 8,-8"/>
<text text-anchor="middle" x="773.5" y="-329.55" font-family="Arial" font-size="14.00">CloudForge VPC 10.20.0.0/16</text>
</g>
<g id="clust2" class="cluster">
<title>cluster_aza</title>
<polygon fill="none" stroke="black" points="16,-18.88 16,-224.75 593,-224.75 593,-18.88 16,-18.88"/>
<text text-anchor="middle" x="304.5" y="-209.55" font-family="Arial" font-size="14.00">Availability Zone A</text>
</g>
<g id="clust3" class="cluster">
<title>cluster_azb</title>
<polygon fill="none" stroke="black" points="953,-18.88 953,-224.75 1531,-224.75 1531,-18.88 953,-18.88"/>
<text text-anchor="middle" x="1242" y="-209.55" font-family="Arial" font-size="14.00">Availability Zone B</text>
</g>
<!-- users -->
<g id="node1" class="node">
<title>users</title>
<ellipse fill="none" stroke="black" cx="695" cy="-569.03" rx="89.19" ry="19.18"/>
<text text-anchor="middle" x="695" y="-565.33" font-family="Arial" font-size="14.00">Application Users</text>
</g>
<!-- internet -->
<g id="node2" class="node">
<title>internet</title>
<ellipse fill="none" stroke="black" cx="695" cy="-481.84" rx="46.84" ry="19.18"/>
<text text-anchor="middle" x="695" y="-478.14" font-family="Arial" font-size="14.00">Internet</text>
</g>
<!-- users&#45;&gt;internet -->
<g id="edge1" class="edge">
<title>users&#45;&gt;internet</title>
<path fill="none" stroke="black" d="M695,-549.54C695,-538.3 695,-523.72 695,-511.06"/>
<polygon fill="black" stroke="black" points="698.5,-511 695,-501 691.5,-511 698.5,-511"/>
</g>
<!-- igw -->
<g id="node3" class="node">
<title>igw</title>
<polygon fill="none" stroke="black" points="757,-413.75 633,-413.75 633,-377.75 757,-377.75 757,-413.75"/>
<text text-anchor="middle" x="695" y="-392.05" font-family="Arial" font-size="14.00">Internet Gateway</text>
</g>
<!-- internet&#45;&gt;igw -->
<g id="edge2" class="edge">
<title>internet&#45;&gt;igw</title>
<path fill="none" stroke="black" d="M695,-462.6C695,-451.27 695,-436.52 695,-423.85"/>
<polygon fill="black" stroke="black" points="698.5,-423.81 695,-413.81 691.5,-423.81 698.5,-423.81"/>
</g>
<!-- alb -->
<g id="node4" class="node">
<title>alb</title>
<polygon fill="none" stroke="black" points="762.5,-313.75 627.5,-313.75 627.5,-271.75 762.5,-271.75 762.5,-313.75"/>
<text text-anchor="middle" x="695" y="-296.55" font-family="Arial" font-size="14.00">Internet&#45;facing ALB</text>
<text text-anchor="middle" x="695" y="-281.55" font-family="Arial" font-size="14.00">HTTPS 443</text>
</g>
<!-- igw&#45;&gt;alb -->
<g id="edge3" class="edge">
<title>igw&#45;&gt;alb</title>
<path fill="none" stroke="black" d="M695,-377.62C695,-363.08 695,-341.85 695,-324.4"/>
<polygon fill="black" stroke="black" points="698.5,-324.11 695,-314.11 691.5,-324.11 698.5,-324.11"/>
</g>
<!-- ecs -->
<g id="node15" class="node">
<title>ecs</title>
<polygon fill="none" stroke="black" points="772,-193.75 618,-193.75 618,-151.75 772,-151.75 772,-193.75"/>
<text text-anchor="middle" x="695" y="-176.55" font-family="Arial" font-size="14.00">ECS Fargate Services</text>
<text text-anchor="middle" x="695" y="-161.55" font-family="Arial" font-size="14.00">No public IP</text>
</g>
<!-- alb&#45;&gt;ecs -->
<g id="edge4" class="edge">
<title>alb&#45;&gt;ecs</title>
<path fill="none" stroke="black" d="M695,-271.73C695,-253.17 695,-225.29 695,-204.01"/>
<polygon fill="black" stroke="black" points="698.5,-203.87 695,-193.87 691.5,-203.87 698.5,-203.87"/>
<text text-anchor="middle" x="757" y="-236.55" font-family="Arial" font-size="14.00">ALB SG → ECS SG</text>
</g>
<!-- pub_a -->
<g id="node5" class="node">
<title>pub_a</title>
<polygon fill="none" stroke="black" points="120,-193.75 24,-193.75 24,-151.75 120,-151.75 120,-193.75"/>
<text text-anchor="middle" x="72" y="-176.55" font-family="Arial" font-size="14.00">Public A</text>
<text text-anchor="middle" x="72" y="-161.55" font-family="Arial" font-size="14.00">10.20.0.0/24</text>
</g>
<!-- nat_a -->
<g id="node6" class="node">
<title>nat_a</title>
<polygon fill="none" stroke="black" points="347.5,-62.88 230.5,-62.88 230.5,-26.88 347.5,-26.88 347.5,-62.88"/>
<text text-anchor="middle" x="289" y="-41.17" font-family="Arial" font-size="14.00">NAT Gateway A</text>
</g>
<!-- pub_a&#45;&gt;nat_a -->
<g id="edge6" class="edge">
<title>pub_a&#45;&gt;nat_a</title>
<path fill="none" stroke="black" d="M86.07,-151.59C98.54,-135.06 118.13,-112.12 140,-97.75 164.36,-81.74 194.22,-70.08 220.8,-61.91"/>
<polygon fill="black" stroke="black" points="221.83,-65.26 230.42,-59.06 219.84,-58.55 221.83,-65.26"/>
</g>
<!-- app_a -->
<g id="node7" class="node">
<title>app_a</title>
<polygon fill="none" stroke="black" points="394.5,-193.75 291.5,-193.75 291.5,-151.75 394.5,-151.75 394.5,-193.75"/>
<text text-anchor="middle" x="343" y="-176.55" font-family="Arial" font-size="14.00">Private App A</text>
<text text-anchor="middle" x="343" y="-161.55" font-family="Arial" font-size="14.00">10.20.10.0/24</text>
</g>
<!-- app_a&#45;&gt;ecs -->
<g id="edge8" class="edge">
<title>app_a&#45;&gt;ecs</title>
<path fill="none" stroke="black" d="M358.95,-194.01C374.13,-212.31 398.8,-237.44 427,-248.25 492.57,-273.39 517.93,-269.05 585,-248.25 615.27,-238.86 644.61,-217.94 665.36,-200.49"/>
<polygon fill="black" stroke="black" points="667.87,-202.95 673.16,-193.77 663.3,-197.65 667.87,-202.95"/>
</g>
<!-- data_a -->
<g id="node8" class="node">
<title>data_a</title>
<polygon fill="none" stroke="black" points="259.5,-193.75 152.5,-193.75 152.5,-151.75 259.5,-151.75 259.5,-193.75"/>
<text text-anchor="middle" x="206" y="-176.55" font-family="Arial" font-size="14.00">Private Data A</text>
<text text-anchor="middle" x="206" y="-161.55" font-family="Arial" font-size="14.00">10.20.20.0/24</text>
</g>
<!-- rds -->
<g id="node16" class="node">
<title>rds</title>
<path fill="none" stroke="black" d="M771,-68.4C771,-71.28 732.9,-73.63 686,-73.63 639.1,-73.63 601,-71.28 601,-68.4 601,-68.4 601,-21.35 601,-21.35 601,-18.47 639.1,-16.12 686,-16.12 732.9,-16.12 771,-18.47 771,-21.35 771,-21.35 771,-68.4 771,-68.4"/>
<path fill="none" stroke="black" d="M771,-68.4C771,-65.51 732.9,-63.17 686,-63.17 639.1,-63.17 601,-65.51 601,-68.4"/>
<text text-anchor="middle" x="686" y="-48.67" font-family="Arial" font-size="14.00">RDS PostgreSQL</text>
<text text-anchor="middle" x="686" y="-33.67" font-family="Arial" font-size="14.00">Publicly accessible: false</text>
</g>
<!-- data_a&#45;&gt;rds -->
<g id="edge10" class="edge">
<title>data_a&#45;&gt;rds</title>
<path fill="none" stroke="black" d="M254.42,-151.69C296.86,-134.87 360.56,-111.48 418,-97.75 493.02,-79.82 516.79,-90.25 596.16,-73.75"/>
<polygon fill="black" stroke="black" points="597.08,-77.13 606.12,-71.6 595.61,-70.29 597.08,-77.13"/>
</g>
<!-- mgmt_a -->
<g id="node9" class="node">
<title>mgmt_a</title>
<polygon fill="none" stroke="black" points="585.5,-193.75 426.5,-193.75 426.5,-151.75 585.5,-151.75 585.5,-193.75"/>
<text text-anchor="middle" x="506" y="-176.55" font-family="Arial" font-size="14.00">Private Management A</text>
<text text-anchor="middle" x="506" y="-161.55" font-family="Arial" font-size="14.00">10.20.30.0/24</text>
</g>
<!-- jenkins -->
<g id="node17" class="node">
<title>jenkins</title>
<polygon fill="none" stroke="black" points="944.5,-62.88 803.5,-62.88 803.5,-26.88 944.5,-26.88 944.5,-62.88"/>
<text text-anchor="middle" x="874" y="-41.17" font-family="Arial" font-size="14.00">Jenkins / Monitoring</text>
</g>
<!-- mgmt_a&#45;&gt;jenkins -->
<g id="edge12" class="edge">
<title>mgmt_a&#45;&gt;jenkins</title>
<path fill="none" stroke="black" d="M585.53,-152.53C587.03,-152.26 588.52,-152 590,-151.75 641.98,-142.96 781.65,-156.24 826,-127.75 845.74,-115.07 858.37,-91.16 865.7,-72.44"/>
<polygon fill="black" stroke="black" points="869.02,-73.54 869.14,-62.94 862.44,-71.15 869.02,-73.54"/>
</g>
<!-- pub_b -->
<g id="node10" class="node">
<title>pub_b</title>
<polygon fill="none" stroke="black" points="1523,-193.75 1427,-193.75 1427,-151.75 1523,-151.75 1523,-193.75"/>
<text text-anchor="middle" x="1475" y="-176.55" font-family="Arial" font-size="14.00">Public B</text>
<text text-anchor="middle" x="1475" y="-161.55" font-family="Arial" font-size="14.00">10.20.1.0/24</text>
</g>
<!-- nat_b -->
<g id="node11" class="node">
<title>nat_b</title>
<polygon fill="none" stroke="black" points="1307.5,-62.88 1190.5,-62.88 1190.5,-26.88 1307.5,-26.88 1307.5,-62.88"/>
<text text-anchor="middle" x="1249" y="-41.17" font-family="Arial" font-size="14.00">NAT Gateway B</text>
</g>
<!-- pub_b&#45;&gt;nat_b -->
<g id="edge7" class="edge">
<title>pub_b&#45;&gt;nat_b</title>
<path fill="none" stroke="black" d="M1445,-151.63C1421.48,-136.17 1387.7,-114.68 1357,-97.75 1337.51,-87 1315.45,-76.18 1296.37,-67.22"/>
<polygon fill="black" stroke="black" points="1297.81,-64.03 1287.26,-62.98 1294.85,-70.37 1297.81,-64.03"/>
</g>
<!-- app_b -->
<g id="node12" class="node">
<title>app_b</title>
<polygon fill="none" stroke="black" points="1063,-193.75 961,-193.75 961,-151.75 1063,-151.75 1063,-193.75"/>
<text text-anchor="middle" x="1012" y="-176.55" font-family="Arial" font-size="14.00">Private App B</text>
<text text-anchor="middle" x="1012" y="-161.55" font-family="Arial" font-size="14.00">10.20.11.0/24</text>
</g>
<!-- app_b&#45;&gt;ecs -->
<g id="edge9" class="edge">
<title>app_b&#45;&gt;ecs</title>
<path fill="none" stroke="black" d="M960.92,-172.75C901.42,-172.75 841.91,-172.75 782.41,-172.75"/>
<polygon fill="black" stroke="black" points="782.08,-169.25 772.08,-172.75 782.08,-176.25 782.08,-169.25"/>
</g>
<!-- data_b -->
<g id="node13" class="node">
<title>data_b</title>
<polygon fill="none" stroke="black" points="1203,-193.75 1095,-193.75 1095,-151.75 1203,-151.75 1203,-193.75"/>
<text text-anchor="middle" x="1149" y="-176.55" font-family="Arial" font-size="14.00">Private Data B</text>
<text text-anchor="middle" x="1149" y="-161.55" font-family="Arial" font-size="14.00">10.20.21.0/24</text>
</g>
<!-- data_b&#45;&gt;rds -->
<g id="edge11" class="edge">
<title>data_b&#45;&gt;rds</title>
<path fill="none" stroke="black" d="M1094.94,-155.41C1089.58,-154.06 1084.2,-152.81 1079,-151.75 993.86,-134.43 968.08,-153.15 885,-127.75 856.87,-119.15 852.95,-109.55 826,-97.75 808.31,-90 789.05,-82.37 770.65,-75.45"/>
<polygon fill="black" stroke="black" points="771.7,-72.1 761.11,-71.89 769.26,-78.66 771.7,-72.1"/>
</g>
<!-- mgmt_b -->
<g id="node14" class="node">
<title>mgmt_b</title>
<polygon fill="none" stroke="black" points="1394.5,-193.75 1235.5,-193.75 1235.5,-151.75 1394.5,-151.75 1394.5,-193.75"/>
<text text-anchor="middle" x="1315" y="-176.55" font-family="Arial" font-size="14.00">Private Management B</text>
<text text-anchor="middle" x="1315" y="-161.55" font-family="Arial" font-size="14.00">10.20.31.0/24</text>
</g>
<!-- mgmt_b&#45;&gt;jenkins -->
<g id="edge13" class="edge">
<title>mgmt_b&#45;&gt;jenkins</title>
<path fill="none" stroke="black" d="M1235.48,-152.76C1160.92,-134.41 1046.61,-104.88 949,-73.75 941.99,-71.52 934.68,-69.01 927.48,-66.45"/>
<polygon fill="black" stroke="black" points="928.37,-63.05 917.78,-62.93 925.99,-69.63 928.37,-63.05"/>
</g>
<!-- ecs&#45;&gt;nat_a -->
<g id="edge14" class="edge">
<title>ecs&#45;&gt;nat_a</title>
<path fill="none" stroke="black" d="M617.74,-152.94C547.58,-135.09 441.68,-106.22 352,-73.75 346.38,-71.72 340.55,-69.41 334.82,-67.02"/>
<polygon fill="black" stroke="black" points="335.87,-63.67 325.3,-62.96 333.12,-70.1 335.87,-63.67"/>
<text text-anchor="middle" x="563.5" y="-109.05" font-family="Arial" font-size="14.00">AZ A outbound</text>
</g>
<!-- ecs&#45;&gt;nat_b -->
<g id="edge15" class="edge">
<title>ecs&#45;&gt;nat_b</title>
<path fill="none" stroke="black" d="M772.21,-161.88C870.26,-148.1 1043.9,-119.52 1187,-73.75 1193.05,-71.82 1199.29,-69.46 1205.39,-66.95"/>
<polygon fill="black" stroke="black" points="1206.98,-70.08 1214.78,-62.92 1204.21,-63.65 1206.98,-70.08"/>
<text text-anchor="middle" x="1139.5" y="-109.05" font-family="Arial" font-size="14.00">AZ B outbound</text>
</g>
<!-- ecs&#45;&gt;rds -->
<g id="edge5" class="edge">
<title>ecs&#45;&gt;rds</title>
<path fill="none" stroke="black" d="M693.55,-151.53C692.26,-133.41 690.32,-106.35 688.74,-84.15"/>
<polygon fill="black" stroke="black" points="692.22,-83.75 688.01,-74.02 685.23,-84.25 692.22,-83.75"/>
<text text-anchor="middle" x="754.5" y="-116.55" font-family="Arial" font-size="14.00">5432</text>
<text text-anchor="middle" x="754.5" y="-101.55" font-family="Arial" font-size="14.00">ECS SG → RDS SG</text>
</g>
</g>
</svg>
